<svg width="41" height="42" viewBox="0 0 41 42" fill="none" xmlns="http://www.w3.org/2000/svg">
<rect x="0.59375" y="0.916748" width="39.9103" height="40.6192" rx="19.9551" fill="#1C1C1C"/>
<rect x="0.59375" y="0.916748" width="39.9103" height="40.6192" rx="19.9551" stroke="#2A2A2A" stroke-width="0.5"/>
<path d="M13.4766 21.7306L12.8991 21.1531L12.3217 21.7306L12.8991 22.308L13.4766 21.7306ZM28.1758 22.5472C28.6269 22.5472 28.9925 22.1816 28.9925 21.7306C28.9925 21.2796 28.6269 20.9139 28.1758 20.9139V22.5472ZM17.7989 16.2534L12.8991 21.1531L14.054 22.308L18.9538 17.4083L17.7989 16.2534ZM12.8991 22.308L17.7989 27.2078L18.9538 26.0529L14.054 21.1531L12.8991 22.308ZM13.4766 22.5472H28.1758V20.9139H13.4766V22.5472Z" fill="#F1F1F1"/>
</svg>
