<svg width="360" height="61" viewBox="0 0 360 61" fill="none" xmlns="http://www.w3.org/2000/svg">
<g clip-path="url(#clip0_1047_1980)">
<rect width="360" height="61" rx="30.5" fill="url(#paint0_linear_1047_1980)"/>
<path d="M84.9133 36.27C83.1013 36.27 81.6133 35.646 80.4493 34.398C79.2973 33.138 78.7213 31.542 78.7213 29.61C78.7213 27.666 79.2853 26.058 80.4133 24.786C81.5413 23.514 83.0353 22.878 84.8953 22.878C86.4313 22.878 87.6613 23.286 88.5853 24.102C89.5213 24.906 90.0613 25.944 90.2053 27.216H87.6133C87.4933 26.556 87.1933 26.034 86.7133 25.65C86.2453 25.266 85.6393 25.074 84.8953 25.074C83.7553 25.074 82.8853 25.494 82.2853 26.334C81.6853 27.174 81.3853 28.266 81.3853 29.61C81.3853 30.942 81.7033 32.028 82.3393 32.868C82.9873 33.708 83.8453 34.128 84.9133 34.128C85.6693 34.128 86.2993 33.924 86.8033 33.516C87.3073 33.096 87.6013 32.544 87.6853 31.86H90.2413C90.1693 33.072 89.6953 34.086 88.8193 34.902C87.8473 35.814 86.5453 36.27 84.9133 36.27ZM92.5873 36V23.13H95.1973V33.822H101.245V36H92.5873ZM102.797 36L107.279 23.13H109.979L114.515 36H111.797L110.933 33.264H106.289L105.443 36H102.797ZM108.053 27.558L106.901 31.266H110.303L109.151 27.558L108.629 25.578H108.593C108.377 26.442 108.197 27.102 108.053 27.558ZM116.62 36V23.13H119.23V36H116.62ZM122.228 36V23.13H125.9L127.718 29.592C127.85 30.072 127.982 30.606 128.114 31.194C128.258 31.77 128.366 32.226 128.438 32.562L128.528 33.066H128.564C128.792 31.83 129.056 30.672 129.356 29.592L131.174 23.13H134.9V36H132.47V28.62L132.578 25.956H132.542C132.35 26.964 132.164 27.78 131.984 28.404L129.77 36H127.268L125.108 28.404L124.55 25.956H124.514C124.586 27.036 124.622 27.924 124.622 28.62V36H122.228ZM141.918 36V23.13H144.528V33.822H150.576V36H141.918ZM152.994 36V23.13H155.604V36H152.994ZM158.603 36V23.13H162.275L164.093 29.592C164.225 30.072 164.357 30.606 164.489 31.194C164.633 31.77 164.741 32.226 164.813 32.562L164.903 33.066H164.939C165.167 31.83 165.431 30.672 165.731 29.592L167.549 23.13H171.275V36H168.845V28.62L168.953 25.956H168.917C168.725 26.964 168.539 27.78 168.359 28.404L166.145 36H163.643L161.483 28.404L160.925 25.956H160.889C160.961 27.036 160.997 27.924 160.997 28.62V36H158.603ZM174.284 36V23.13H176.894V36H174.284ZM179.227 25.326V23.13H189.577V25.326H185.707V36H183.097V25.326H179.227ZM191.9 36V23.13H201.368V25.326H194.51V28.206H200.522V30.348H194.51V33.822H201.422V36H191.9ZM204.048 36V23.13H209.07C210.774 23.13 212.142 23.748 213.174 24.984C214.206 26.208 214.722 27.78 214.722 29.7C214.722 31.92 214.038 33.606 212.67 34.758C211.674 35.586 210.402 36 208.854 36H204.048ZM206.658 33.75H208.674C209.862 33.75 210.726 33.408 211.266 32.724C211.806 32.028 212.076 31.02 212.076 29.7C212.076 28.38 211.788 27.33 211.212 26.55C210.648 25.758 209.826 25.362 208.746 25.362H206.658V33.75ZM231.324 34.416C230.196 35.664 228.696 36.288 226.824 36.288C224.952 36.288 223.446 35.664 222.306 34.416C221.178 33.156 220.614 31.548 220.614 29.592C220.614 27.636 221.178 26.028 222.306 24.768C223.446 23.508 224.952 22.878 226.824 22.878C228.696 22.878 230.196 23.508 231.324 24.768C232.452 26.028 233.016 27.636 233.016 29.592C233.016 31.548 232.452 33.156 231.324 34.416ZM224.196 32.868C224.82 33.72 225.702 34.146 226.842 34.146C227.982 34.146 228.852 33.726 229.452 32.886C230.052 32.034 230.352 30.936 230.352 29.592C230.352 28.248 230.052 27.15 229.452 26.298C228.852 25.446 227.982 25.02 226.842 25.02C225.702 25.02 224.82 25.446 224.196 26.298C223.584 27.15 223.278 28.248 223.278 29.592C223.278 30.924 223.584 32.016 224.196 32.868ZM235.447 36V23.13H244.663V25.344H238.057V28.44H243.655V30.672H238.057V36H235.447ZM247.137 36V23.13H256.353V25.344H249.747V28.44H255.345V30.672H249.747V36H247.137ZM258.828 36V23.13H268.296V25.326H261.438V28.206H267.45V30.348H261.438V33.822H268.35V36H258.828ZM270.976 36V23.13H276.88C278.116 23.13 279.112 23.46 279.868 24.12C280.636 24.78 281.02 25.644 281.02 26.712C281.02 28.356 280.234 29.394 278.662 29.826V29.88C279.274 30.06 279.73 30.348 280.03 30.744C280.342 31.128 280.54 31.704 280.624 32.472C280.648 32.76 280.672 33.102 280.696 33.498C280.732 33.882 280.756 34.188 280.768 34.416C280.792 34.644 280.816 34.872 280.84 35.1C280.876 35.328 280.918 35.508 280.966 35.64C281.026 35.76 281.098 35.838 281.182 35.874V36H278.68C278.632 35.976 278.59 35.934 278.554 35.874C278.518 35.802 278.488 35.706 278.464 35.586C278.44 35.466 278.416 35.346 278.392 35.226C278.38 35.094 278.362 34.932 278.338 34.74C278.326 34.536 278.314 34.362 278.302 34.218C278.29 34.062 278.272 33.864 278.248 33.624C278.236 33.372 278.224 33.174 278.212 33.03C278.104 31.566 277.264 30.834 275.692 30.834H273.586V36H270.976ZM273.586 25.236V28.818H276.358C277.042 28.818 277.564 28.656 277.924 28.332C278.296 28.008 278.482 27.582 278.482 27.054C278.482 26.514 278.308 26.076 277.96 25.74C277.612 25.404 277.102 25.236 276.43 25.236H273.586Z" fill="white"/>
</g>
<defs>
<linearGradient id="paint0_linear_1047_1980" x1="392.5" y1="30.4091" x2="-15.5" y2="30.5928" gradientUnits="userSpaceOnUse">
<stop stop-color="#0063FF"/>
<stop offset="1" stop-color="#BE00DB"/>
</linearGradient>
<clipPath id="clip0_1047_1980">
<rect width="360" height="61" rx="30.5" fill="white"/>
</clipPath>
</defs>
</svg>
