<svg width="28" height="26" viewBox="0 0 28 26" fill="none" xmlns="http://www.w3.org/2000/svg">
<path d="M23.8 7.9999H22.4V4.24995C22.4 3.2554 21.9575 2.30159 21.1698 1.59833C20.3822 0.895083 19.3139 0.5 18.2 0.5H4.2C3.08609 0.5 2.0178 0.895083 1.23015 1.59833C0.442499 2.30159 0 3.2554 0 4.24995V19.2497C0.00137967 19.4965 0.084543 19.7374 0.239009 19.9421C0.393476 20.1467 0.612333 20.306 0.868 20.3997C1.03415 20.4697 1.21635 20.5039 1.4 20.4997C1.58425 20.5007 1.7669 20.4691 1.93747 20.4069C2.10804 20.3447 2.26318 20.2531 2.394 20.1372L6.328 16.6123H8.4V18.4123C8.4 19.4068 8.8425 20.3606 9.63015 21.0639C10.4178 21.7671 11.4861 22.1622 12.6 22.1622H22.288L25.606 25.1372C25.7368 25.253 25.892 25.3447 26.0625 25.4069C26.2331 25.4691 26.4158 25.5006 26.6 25.4997C26.7836 25.5039 26.9658 25.4696 27.132 25.3997C27.3877 25.3059 27.6065 25.1466 27.761 24.942C27.9155 24.7373 27.9986 24.4964 28 24.2497V11.7498C28 10.7553 27.5575 9.80148 26.7698 9.09823C25.9822 8.39498 24.9139 7.9999 23.8 7.9999ZM8.4 11.7498V14.1123H5.754C5.56975 14.1114 5.3871 14.1429 5.21653 14.2051C5.04596 14.2673 4.89082 14.359 4.76 14.4748L2.8 16.2373V4.24995C2.8 3.91843 2.9475 3.60049 3.21005 3.36608C3.4726 3.13166 3.8287 2.99997 4.2 2.99997H18.2C18.5713 2.99997 18.9274 3.13166 19.1899 3.36608C19.4525 3.60049 19.6 3.91843 19.6 4.24995V7.9999H12.6C11.4861 7.9999 10.4178 8.39498 9.63015 9.09823C8.8425 9.80148 8.4 10.7553 8.4 11.7498ZM25.2 21.2372L23.8 19.9872C23.6703 19.8691 23.5157 19.7752 23.3451 19.7108C23.1745 19.6464 22.9912 19.6129 22.806 19.6122H12.6C12.2287 19.6122 11.8726 19.4805 11.6101 19.2461C11.3475 19.0117 11.2 18.6938 11.2 18.3623V11.7498C11.2 11.4183 11.3475 11.1004 11.6101 10.866C11.8726 10.6316 12.2287 10.4999 12.6 10.4999H23.8C24.1713 10.4999 24.5274 10.6316 24.7899 10.866C25.0525 11.1004 25.2 11.4183 25.2 11.7498V21.2372Z" fill="white"/>
</svg>
