<svg width="31" height="32" viewBox="0 0 31 32" fill="none" xmlns="http://www.w3.org/2000/svg">
<rect y="0.768066" width="30.6391" height="30.464" rx="15.232" fill="#FFD312"/>
<path d="M13.3549 13.6988V13.0237C12.9821 13.0237 12.6799 13.326 12.6799 13.6988H13.3549ZM13.4311 13.6988H14.1061C14.1061 13.326 13.8039 13.0237 13.4311 13.0237V13.6988ZM17.9449 13.6988V13.0237C17.5721 13.0237 17.2699 13.326 17.2699 13.6988H17.9449ZM18.0126 13.6988H18.6876C18.6876 13.326 18.3854 13.0237 18.0126 13.0237V13.6988ZM13.4311 13.76V14.435C13.8039 14.435 14.1061 14.1328 14.1061 13.76H13.4311ZM13.3549 13.76H12.6799C12.6799 14.1328 12.9821 14.435 13.3549 14.435V13.76ZM18.0126 13.76V14.435C18.3854 14.435 18.6876 14.1328 18.6876 13.76H18.0126ZM17.9449 13.76H17.2699C17.2699 14.1328 17.5721 14.435 17.9449 14.435V13.76ZM13.5718 17.9647C13.3756 17.6477 12.9596 17.5498 12.6426 17.746C12.3256 17.9422 12.2277 18.3582 12.4239 18.6752L13.5718 17.9647ZM18.8759 18.6752C19.0721 18.3582 18.9742 17.9422 18.6572 17.746C18.3402 17.5498 17.9242 17.6477 17.728 17.9647L18.8759 18.6752ZM22.6249 15.9938C22.6249 19.8459 19.5021 22.9688 15.6499 22.9688V24.3187C20.2477 24.3187 23.9749 20.5915 23.9749 15.9938H22.6249ZM15.6499 22.9688C11.7977 22.9688 8.67491 19.8459 8.67491 15.9938H7.32491C7.32491 20.5915 11.0521 24.3187 15.6499 24.3187V22.9688ZM8.67491 15.9938C8.67491 12.1416 11.7977 9.01875 15.6499 9.01875V7.66875C11.0521 7.66875 7.32491 11.396 7.32491 15.9938H8.67491ZM15.6499 9.01875C19.5021 9.01875 22.6249 12.1416 22.6249 15.9938H23.9749C23.9749 11.396 20.2477 7.66875 15.6499 7.66875V9.01875ZM13.3549 14.3737H13.4311V13.0237H13.3549V14.3737ZM17.9449 14.3737H18.0126V13.0237H17.9449V14.3737ZM12.7561 13.6988V13.76H14.1061V13.6988H12.7561ZM13.4311 13.085H13.3549V14.435H13.4311V13.085ZM14.0299 13.76V13.6988H12.6799V13.76H14.0299ZM17.3376 13.6988V13.76H18.6876V13.6988H17.3376ZM18.0126 13.085H17.9449V14.435H18.0126V13.085ZM18.6199 13.76V13.6988H17.2699V13.76H18.6199ZM15.6499 19.1437C14.7843 19.1437 14.015 18.6806 13.5718 17.9647L12.4239 18.6752C13.0963 19.7615 14.2856 20.4937 15.6499 20.4937V19.1437ZM17.728 17.9647C17.2849 18.6806 16.5155 19.1437 15.6499 19.1437V20.4937C17.0142 20.4937 18.2035 19.7615 18.8759 18.6752L17.728 17.9647Z" fill="white"/>
</svg>
