<svg width="31" height="32" viewBox="0 0 31 32" fill="none" xmlns="http://www.w3.org/2000/svg">
<rect y="0.768066" width="30.6391" height="30.464" rx="15.232" fill="#FF9019"/>
<path d="M23.1643 14.232C23.1643 14.0701 23.1 13.9147 22.9854 13.8002C22.8709 13.6857 22.7156 13.6213 22.5536 13.6213H21.3322V12.3999C21.3322 12.076 21.2035 11.7653 20.9744 11.5362C20.7454 11.3072 20.4347 11.1785 20.1108 11.1785H8.50718C8.18324 11.1785 7.87256 11.3072 7.6435 11.5362C7.41444 11.7653 7.28575 12.076 7.28575 12.3999V19.7285C7.28575 20.0524 7.41444 20.3631 7.6435 20.5921C7.87256 20.8212 8.18324 20.9499 8.50718 20.9499H20.1108C20.4347 20.9499 20.7454 20.8212 20.9744 20.5921C21.2035 20.3631 21.3322 20.0524 21.3322 19.7285V18.507H22.5536C22.7156 18.507 22.8709 18.4427 22.9854 18.3282C23.1 18.2136 23.1643 18.0583 23.1643 17.8963V14.232Z" stroke="white" stroke-width="1.22143" stroke-linecap="round" stroke-linejoin="round"/>
<path d="M10.6447 14.2324V17.8967" stroke="white" stroke-width="1.22143" stroke-linecap="round" stroke-linejoin="round"/>
<path d="M14.3089 14.2324V17.8967" stroke="white" stroke-width="1.22143" stroke-linecap="round" stroke-linejoin="round"/>
<path d="M17.9732 14.2324V17.8967" stroke="white" stroke-width="1.22143" stroke-linecap="round" stroke-linejoin="round"/>
</svg>
