<svg width="31" height="32" viewBox="0 0 31 32" fill="none" xmlns="http://www.w3.org/2000/svg">
<rect y="0.588623" width="31" height="30.8229" rx="15.4114" fill="#3D8EFF"/>
<path d="M15.8338 15.0104C16.493 15.0104 17.1375 14.8149 17.6857 14.4486C18.2338 14.0824 18.6611 13.5618 18.9134 12.9527C19.1657 12.3436 19.2317 11.6734 19.103 11.0268C18.9744 10.3802 18.657 9.78624 18.1908 9.32006C17.7246 8.85389 17.1307 8.53642 16.4841 8.4078C15.8375 8.27918 15.1672 8.34519 14.5581 8.59749C13.9491 8.84978 13.4285 9.27702 13.0622 9.82518C12.6959 10.3733 12.5004 11.0178 12.5004 11.6771C12.5004 12.5611 12.8516 13.409 13.4767 14.0341C14.1019 14.6592 14.9497 15.0104 15.8338 15.0104Z" fill="white"/>
<path d="M20.8334 23.3439C21.0544 23.3439 21.2664 23.2561 21.4227 23.0998C21.579 22.9436 21.6668 22.7316 21.6668 22.5106C21.6668 20.9635 21.0522 19.4798 19.9582 18.3858C18.8643 17.2918 17.3805 16.6772 15.8334 16.6772C14.2863 16.6772 12.8026 17.2918 11.7086 18.3858C10.6147 19.4798 10.0001 20.9635 10.0001 22.5106C10.0001 22.7316 10.0879 22.9436 10.2442 23.0998C10.4004 23.2561 10.6124 23.3439 10.8334 23.3439H20.8334Z" fill="white"/>
</svg>
