<svg width="31" height="32" viewBox="0 0 31 32" fill="none" xmlns="http://www.w3.org/2000/svg">
<rect y="0.768066" width="30.6391" height="30.464" rx="15.232" fill="#00B6E4"/>
<path d="M18.5552 7.67006C18.6623 7.7321 18.7451 7.8286 18.7902 7.9438C18.8352 8.059 18.8399 8.18608 18.8035 8.30429L16.8341 14.7034H20.4678C20.5745 14.7034 20.679 14.7346 20.7682 14.7933C20.8575 14.8519 20.9276 14.9354 20.9699 15.0335C21.0123 15.1315 21.025 15.2398 21.0065 15.345C20.9879 15.4501 20.9391 15.5476 20.8658 15.6253L12.1178 24.92C12.0332 25.01 11.9205 25.0687 11.7982 25.0865C11.676 25.1043 11.5513 25.0802 11.4445 25.018C11.3377 24.9559 11.2551 24.8594 11.2102 24.7443C11.1652 24.6292 11.1606 24.5023 11.1971 24.3842L13.1665 17.9839H9.53276C9.42598 17.984 9.32152 17.9528 9.23227 17.8941C9.14303 17.8355 9.07292 17.752 9.03059 17.6539C8.98826 17.5559 8.97556 17.4476 8.99407 17.3424C9.01257 17.2373 9.06147 17.1398 9.13473 17.0621L17.8827 7.76738C17.9673 7.67749 18.0797 7.61885 18.2018 7.60098C18.3239 7.58311 18.4485 7.60707 18.5552 7.66896V7.67006Z" fill="white"/>
</svg>
