<svg width="228" height="57" viewBox="0 0 228 57" fill="none" xmlns="http://www.w3.org/2000/svg">
<g filter="url(#filter0_i_676_2275)">
<rect y="0.343506" width="228" height="56" rx="28" fill="#070707" fill-opacity="0.5"/>
<rect x="0.25" y="0.593506" width="227.5" height="55.5" rx="27.75" stroke="#7C7C7C" stroke-width="0.5"/>
<path d="M35.33 35.3435V21.6635H44.26V24.0765H37.914V27.0025H43.12V29.4155H37.914V32.9305H44.26V35.3435H35.33ZM45.397 35.3435L49.064 30.1565L45.473 25.0835H48.513L50.565 28.1235L52.579 25.0835H55.619L52.028 30.1565L55.714 35.3435H52.674L50.565 32.1895L48.437 35.3435H45.397ZM61.394 35.6285C60.33 35.6285 59.418 35.391 58.658 34.916C57.898 34.441 57.3153 33.795 56.91 32.978C56.5047 32.161 56.302 31.2395 56.302 30.2135C56.302 29.1748 56.511 28.247 56.929 27.43C57.3533 26.613 57.9487 25.9702 58.715 25.5015C59.4813 25.0328 60.387 24.7985 61.432 24.7985C62.6417 24.7985 63.655 25.1057 64.472 25.72C65.2953 26.328 65.821 27.1608 66.049 28.2185L63.465 28.9025C63.313 28.3705 63.047 27.9557 62.667 27.658C62.2933 27.3603 61.869 27.2115 61.394 27.2115C60.8493 27.2115 60.4028 27.3445 60.0545 27.6105C59.7062 27.8702 59.4497 28.228 59.285 28.684C59.1203 29.1337 59.038 29.6435 59.038 30.2135C59.038 31.1065 59.2343 31.8317 59.627 32.389C60.026 32.94 60.615 33.2155 61.394 33.2155C61.9767 33.2155 62.42 33.0825 62.724 32.8165C63.028 32.5505 63.256 32.1705 63.408 31.6765L66.049 32.2275C65.7577 33.3168 65.2067 34.156 64.396 34.745C63.5853 35.334 62.5847 35.6285 61.394 35.6285ZM67.8608 35.3435V21.3785H70.4448V35.3435H67.8608ZM77.1119 35.6475C76.3076 35.6475 75.6521 35.5113 75.1454 35.239C74.6387 34.9667 74.2429 34.6215 73.9579 34.2035C73.6792 33.7855 73.4797 33.3517 73.3594 32.902C73.2391 32.446 73.1662 32.0312 73.1409 31.6575C73.1156 31.2838 73.1029 31.0115 73.1029 30.8405V25.0835H75.7249V29.9285C75.7249 30.1628 75.7376 30.4637 75.7629 30.831C75.7882 31.192 75.8674 31.5562 76.0004 31.9235C76.1334 32.2908 76.3487 32.598 76.6464 32.845C76.9504 33.092 77.3779 33.2155 77.9289 33.2155C78.1506 33.2155 78.3881 33.1807 78.6414 33.111C78.8947 33.0413 79.1322 32.9083 79.3539 32.712C79.5756 32.5093 79.7561 32.2148 79.8954 31.8285C80.0411 31.4358 80.1139 30.9228 80.1139 30.2895L81.5959 30.9925C81.5959 31.8032 81.4312 32.5632 81.1019 33.2725C80.7726 33.9818 80.2754 34.555 79.6104 34.992C78.9517 35.429 78.1189 35.6475 77.1119 35.6475ZM80.4369 35.3435V31.9425H80.1139V25.0835H82.7169V35.3435H80.4369ZM89.381 35.6285C88.089 35.6285 87.044 35.3372 86.246 34.7545C85.4543 34.1655 84.973 33.3358 84.802 32.2655L87.443 31.8665C87.5507 32.3478 87.7882 32.7247 88.1555 32.997C88.5292 33.2693 89.001 33.4055 89.571 33.4055C90.0397 33.4055 90.4007 33.3168 90.654 33.1395C90.9073 32.9558 91.034 32.7025 91.034 32.3795C91.034 32.1768 90.9833 32.0153 90.882 31.895C90.7807 31.7683 90.5527 31.6448 90.198 31.5245C89.8497 31.4042 89.305 31.2458 88.564 31.0495C87.728 30.8342 87.0598 30.5935 86.5595 30.3275C86.0592 30.0615 85.6982 29.7448 85.4765 29.3775C85.2548 29.0038 85.144 28.5542 85.144 28.0285C85.144 27.3698 85.3118 26.7998 85.6475 26.3185C85.9832 25.8308 86.455 25.4572 87.063 25.1975C87.6773 24.9315 88.3993 24.7985 89.229 24.7985C90.0333 24.7985 90.7458 24.922 91.3665 25.169C91.9872 25.416 92.4875 25.7675 92.8675 26.2235C93.2538 26.6795 93.4913 27.2178 93.58 27.8385L90.939 28.3135C90.8947 27.9335 90.73 27.6327 90.445 27.411C90.16 27.1893 89.7737 27.0595 89.286 27.0215C88.811 26.9898 88.4278 27.0532 88.1365 27.2115C87.8515 27.3698 87.709 27.5978 87.709 27.8955C87.709 28.0728 87.7692 28.2217 87.8895 28.342C88.0162 28.4623 88.2727 28.5858 88.659 28.7125C89.0517 28.8392 89.647 29.0038 90.445 29.2065C91.224 29.4092 91.8478 29.6467 92.3165 29.919C92.7915 30.185 93.1367 30.508 93.352 30.888C93.5673 31.2617 93.675 31.7145 93.675 32.2465C93.675 33.2978 93.295 34.1243 92.535 34.726C91.775 35.3277 90.7237 35.6285 89.381 35.6285ZM95.9526 23.6585V21.3785H98.5366V23.6585H95.9526ZM95.9526 35.3435V25.0835H98.5366V35.3435H95.9526ZM104.159 35.3435L100.435 25.0835H103.019L105.451 32.1895L107.883 25.0835H110.467L106.743 35.3435H104.159ZM116.581 35.6285C115.53 35.6285 114.602 35.4037 113.798 34.954C113 34.498 112.373 33.8742 111.917 33.0825C111.467 32.2845 111.242 31.3725 111.242 30.3465C111.242 29.2255 111.464 28.2502 111.907 27.4205C112.351 26.5908 112.962 25.948 113.741 25.492C114.52 25.0297 115.416 24.7985 116.429 24.7985C117.506 24.7985 118.421 25.0518 119.175 25.5585C119.929 26.0652 120.486 26.7777 120.847 27.696C121.208 28.6143 121.335 29.6942 121.227 30.9355H118.671V29.9855C118.671 28.9405 118.504 28.19 118.168 27.734C117.839 27.2717 117.297 27.0405 116.543 27.0405C115.663 27.0405 115.014 27.3097 114.596 27.848C114.184 28.38 113.978 29.1685 113.978 30.2135C113.978 31.1698 114.184 31.9108 114.596 32.4365C115.014 32.9558 115.625 33.2155 116.429 33.2155C116.936 33.2155 117.37 33.1047 117.731 32.883C118.092 32.6613 118.367 32.3415 118.557 31.9235L121.141 32.6645C120.755 33.6018 120.144 34.3302 119.308 34.8495C118.478 35.3688 117.569 35.6285 116.581 35.6285ZM113.18 30.9355V29.0165H119.982V30.9355H113.18ZM131.793 35.6285C130.76 35.6285 129.855 35.3973 129.076 34.935C128.297 34.4727 127.689 33.8362 127.252 33.0255C126.821 32.2085 126.606 31.2712 126.606 30.2135C126.606 29.1432 126.827 28.2027 127.271 27.392C127.714 26.575 128.325 25.9385 129.104 25.4825C129.883 25.0265 130.779 24.7985 131.793 24.7985C132.825 24.7985 133.731 25.0297 134.51 25.492C135.295 25.9543 135.906 26.594 136.343 27.411C136.78 28.2217 136.999 29.1558 136.999 30.2135C136.999 31.2775 136.777 32.218 136.334 33.035C135.897 33.8457 135.286 34.4822 134.5 34.9445C133.721 35.4005 132.819 35.6285 131.793 35.6285ZM131.793 33.2155C132.622 33.2155 133.24 32.9368 133.645 32.3795C134.057 31.8158 134.263 31.0938 134.263 30.2135C134.263 29.3015 134.054 28.5732 133.636 28.0285C133.224 27.4838 132.61 27.2115 131.793 27.2115C131.229 27.2115 130.767 27.3382 130.406 27.5915C130.045 27.8448 129.776 28.1963 129.598 28.646C129.427 29.0957 129.342 29.6182 129.342 30.2135C129.342 31.1318 129.548 31.8633 129.959 32.408C130.377 32.9463 130.988 33.2155 131.793 33.2155ZM139.943 35.3435V25.1215C139.943 24.8618 139.949 24.5673 139.962 24.238C139.974 23.9087 140.025 23.5762 140.114 23.2405C140.209 22.9048 140.38 22.6008 140.627 22.3285C140.943 21.9738 141.285 21.7332 141.653 21.6065C142.026 21.4735 142.387 21.4038 142.736 21.3975C143.084 21.3848 143.382 21.3785 143.629 21.3785H144.902V23.4685H143.724C143.318 23.4685 143.018 23.573 142.821 23.782C142.625 23.9847 142.527 24.2285 142.527 24.5135V35.3435H139.943ZM138.328 27.0785V25.0835H144.902V27.0785H138.328ZM146.517 35.3435V25.1215C146.517 24.8618 146.523 24.5673 146.536 24.238C146.548 23.9087 146.599 23.5762 146.688 23.2405C146.783 22.9048 146.954 22.6008 147.201 22.3285C147.517 21.9738 147.859 21.7332 148.227 21.6065C148.6 21.4735 148.961 21.4038 149.31 21.3975C149.658 21.3848 149.956 21.3785 150.203 21.3785H151.476V23.4685H150.298C149.892 23.4685 149.592 23.573 149.395 23.782C149.199 23.9847 149.101 24.2285 149.101 24.5135V35.3435H146.517ZM144.902 27.0785V25.0835H151.476V27.0785H144.902ZM157.402 35.6285C156.35 35.6285 155.423 35.4037 154.618 34.954C153.82 34.498 153.193 33.8742 152.737 33.0825C152.288 32.2845 152.063 31.3725 152.063 30.3465C152.063 29.2255 152.284 28.2502 152.728 27.4205C153.171 26.5908 153.782 25.948 154.561 25.492C155.34 25.0297 156.236 24.7985 157.25 24.7985C158.326 24.7985 159.242 25.0518 159.995 25.5585C160.749 26.0652 161.306 26.7777 161.667 27.696C162.028 28.6143 162.155 29.6942 162.047 30.9355H159.492V29.9855C159.492 28.9405 159.324 28.19 158.988 27.734C158.659 27.2717 158.117 27.0405 157.364 27.0405C156.483 27.0405 155.834 27.3097 155.416 27.848C155.005 28.38 154.799 29.1685 154.799 30.2135C154.799 31.1698 155.005 31.9108 155.416 32.4365C155.834 32.9558 156.445 33.2155 157.25 33.2155C157.756 33.2155 158.19 33.1047 158.551 32.883C158.912 32.6613 159.188 32.3415 159.378 31.9235L161.962 32.6645C161.575 33.6018 160.964 34.3302 160.128 34.8495C159.299 35.3688 158.39 35.6285 157.402 35.6285ZM154.001 30.9355V29.0165H160.803V30.9355H154.001ZM164.192 35.3435V25.0835H166.472V27.5915L166.225 27.2685C166.358 26.9138 166.536 26.5908 166.757 26.2995C166.979 26.0082 167.251 25.7675 167.574 25.5775C167.821 25.4255 168.09 25.3083 168.382 25.226C168.673 25.1373 168.974 25.0835 169.284 25.0645C169.595 25.0392 169.905 25.0455 170.215 25.0835V27.4965C169.93 27.4078 169.598 27.3793 169.218 27.411C168.844 27.4363 168.505 27.5218 168.201 27.6675C167.897 27.8068 167.641 27.9937 167.432 28.228C167.223 28.456 167.064 28.7283 166.957 29.045C166.849 29.3553 166.795 29.7068 166.795 30.0995V35.3435H164.192ZM174.496 36.6735H193.496V17.6735H174.496V36.6735Z" fill="white"/>
</g>
<defs>
<filter id="filter0_i_676_2275" x="0" y="0.343506" width="229" height="58" filterUnits="userSpaceOnUse" color-interpolation-filters="sRGB">
<feFlood flood-opacity="0" result="BackgroundImageFix"/>
<feBlend mode="normal" in="SourceGraphic" in2="BackgroundImageFix" result="shape"/>
<feColorMatrix in="SourceAlpha" type="matrix" values="0 0 0 0 0 0 0 0 0 0 0 0 0 0 0 0 0 0 127 0" result="hardAlpha"/>
<feOffset dx="1" dy="2"/>
<feGaussianBlur stdDeviation="1"/>
<feComposite in2="hardAlpha" operator="arithmetic" k2="-1" k3="1"/>
<feColorMatrix type="matrix" values="0 0 0 0 0 0 0 0 0 0 0 0 0 0 0 0 0 0 0.08 0"/>
<feBlend mode="normal" in2="shape" result="effect1_innerShadow_676_2275"/>
</filter>
</defs>
</svg>
