<svg width="24" height="24" viewBox="0 0 24 24" fill="none" xmlns="http://www.w3.org/2000/svg">
<g clip-path="url(#clip0_1103_245)">
<path d="M10.5 12.526C10.5005 12.7852 10.3981 13.034 10.2153 13.2178C10.0325 13.4015 9.78421 13.5052 9.525 13.506H1.725C1.59662 13.5057 1.46954 13.4802 1.35104 13.4308C1.23254 13.3813 1.12494 13.3091 1.03439 13.2181C0.943842 13.127 0.872118 13.0191 0.823321 12.9003C0.774524 12.7816 0.74961 12.6544 0.750005 12.526V1.73598C0.749742 1.60755 0.774778 1.48032 0.823685 1.36156C0.872591 1.24281 0.944409 1.13485 1.03504 1.04384C1.12567 0.952843 1.23334 0.880584 1.35189 0.831192C1.47045 0.7818 1.59757 0.756244 1.726 0.755981L9.526 0.768981C9.78504 0.77004 10.0331 0.873821 10.2157 1.05755C10.3983 1.24128 10.5005 1.48994 10.5 1.74898V12.526Z" stroke="#AA00FF" stroke-width="1.5" stroke-linecap="round" stroke-linejoin="round"/>
<path d="M23.2461 6.54401C23.2442 6.80083 23.1405 7.04641 22.9577 7.2268C22.7749 7.40718 22.5279 7.5076 22.2711 7.50601H14.4711C14.3439 7.50693 14.2178 7.48277 14.0999 7.43491C13.982 7.38705 13.8748 7.31643 13.7842 7.22709C13.6937 7.13775 13.6216 7.03143 13.5722 6.91422C13.5227 6.79701 13.4969 6.67121 13.4961 6.54401V1.73101C13.4977 1.47445 13.6011 1.22902 13.7835 1.04863C13.9659 0.868252 14.2125 0.767677 14.4691 0.769007L22.2691 0.756007C22.5262 0.754143 22.7735 0.854419 22.9567 1.0348C23.1399 1.21519 23.244 1.46092 23.2461 1.71801V6.54401Z" stroke="#AA00FF" stroke-width="1.5" stroke-linecap="round" stroke-linejoin="round"/>
<path d="M10.5 22.291C10.4992 22.4185 10.4733 22.5446 10.4238 22.6621C10.3743 22.7796 10.3021 22.8862 10.2114 22.9758C10.1206 23.0655 10.0132 23.1363 9.89505 23.1844C9.77694 23.2325 9.65051 23.2568 9.523 23.256L1.723 23.243C1.46618 23.2441 1.21944 23.1431 1.03699 22.9624C0.854547 22.7816 0.751323 22.5358 0.75 22.279V17.47C0.750655 17.3427 0.776401 17.2167 0.825766 17.0993C0.875131 16.9819 0.947148 16.8754 1.0377 16.7859C1.12825 16.6964 1.23556 16.6256 1.35349 16.5776C1.47142 16.5295 1.59766 16.5052 1.725 16.506H9.525C9.78209 16.5047 10.0292 16.6055 10.212 16.7862C10.3948 16.967 10.4984 17.2129 10.5 17.47V22.291Z" stroke="#AA00FF" stroke-width="1.5" stroke-linecap="round" stroke-linejoin="round"/>
<path d="M14.4721 23.256C14.3436 23.2557 14.2164 23.2301 14.0978 23.1807C13.9791 23.1312 13.8714 23.0589 13.7808 22.9678C13.6901 22.8767 13.6183 22.7686 13.5695 22.6497C13.5206 22.5308 13.4957 22.4035 13.4961 22.275V11.487C13.4957 11.3585 13.5206 11.2313 13.5694 11.1125C13.6182 10.9937 13.6899 10.8856 13.7804 10.7946C13.871 10.7035 13.9786 10.6311 14.0971 10.5816C14.2156 10.5321 14.3427 10.5064 14.4711 10.506H22.2711C22.3995 10.5064 22.5266 10.5321 22.6451 10.5816C22.7636 10.6311 22.8712 10.7035 22.9618 10.7946C23.0523 10.8856 23.124 10.9937 23.1728 11.1125C23.2216 11.2313 23.2465 11.3585 23.2461 11.487V22.262C23.2466 22.5211 23.1444 22.7699 22.9618 22.9538C22.7793 23.1377 22.5312 23.2417 22.2721 23.243L14.4721 23.256Z" stroke="#AA00FF" stroke-width="1.5" stroke-linecap="round" stroke-linejoin="round"/>
</g>
<defs>
<clipPath id="clip0_1103_245">
<rect width="24" height="24" fill="white"/>
</clipPath>
</defs>
</svg>
