<svg width="30" height="26" viewBox="0 0 30 26" fill="none" xmlns="http://www.w3.org/2000/svg">
<path d="M0.915039 11.8125C0.915039 12.4219 1.37207 12.9375 2.12207 12.9375C2.48535 12.9375 2.80176 12.75 3.08301 12.5039L4.43066 11.3789V22.2891C4.43066 24.0234 5.47363 25.043 7.25488 25.043H23.1104C24.8916 25.043 25.9346 24.0234 25.9346 22.2891V11.3086L27.3643 12.5039C27.6455 12.75 27.9619 12.9375 28.3252 12.9375C29.0049 12.9375 29.5205 12.5156 29.5205 11.8477C29.5205 11.4492 29.3682 11.1328 29.0635 10.8867L25.9346 8.25V3.26953C25.9346 2.74219 25.5947 2.40234 25.0674 2.40234H23.4854C22.9697 2.40234 22.6182 2.74219 22.6182 3.26953V5.46094L16.876 0.632812C15.8682 -0.210938 14.6025 -0.210938 13.583 0.632812L1.37207 10.8867C1.06738 11.1445 0.915039 11.4844 0.915039 11.8125ZM18.5869 15.0586C18.5869 14.5078 18.2354 14.1562 17.6846 14.1562H12.751C12.2119 14.1562 11.8369 14.5078 11.8369 15.0586V22.7461H7.86426C7.12598 22.7461 6.72754 22.3359 6.72754 21.5977V9.44531L14.7314 2.74219C15.0479 2.46094 15.4111 2.46094 15.7275 2.74219L23.6377 9.375V21.5977C23.6377 22.3359 23.2393 22.7461 22.501 22.7461H18.5869V15.0586Z" fill="white"/>
</svg>
