<svg width="31" height="32" viewBox="0 0 31 32" fill="none" xmlns="http://www.w3.org/2000/svg">
<rect y="0.768066" width="30.6391" height="30.464" rx="15.232" fill="#EC0CF0"/>
<path d="M23.5262 10.8105C23.4002 10.7481 23.2597 10.7165 23.1174 10.7186C22.9751 10.7207 22.8356 10.7565 22.7118 10.8226C22.1309 11.1343 21.561 11.285 20.9682 11.285C19.2399 11.285 17.6118 9.9794 16.1086 8.56797C15.7901 8.26901 15.2058 8.26901 14.8873 8.56797C13.4656 9.90486 11.7722 11.2706 9.99889 11.2706C9.41288 11.2706 8.85151 11.1231 8.28504 10.821C8.03196 10.6879 7.72621 10.6839 7.46973 10.8113C7.21325 10.9388 7.04424 11.1808 7.02131 11.4533C7.01197 11.5567 6.21959 21.7702 15.2449 24.3101C15.3237 24.3325 15.4055 24.3438 15.4878 24.3438H15.5107C15.5931 24.3438 15.6738 24.3325 15.7528 24.3109C24.8035 21.7702 23.9865 11.5543 23.9772 11.4517C23.9651 11.3177 23.9174 11.1888 23.8386 11.0767C23.7598 10.9647 23.6524 10.8731 23.5262 10.8105ZM15.4988 22.7063C9.5717 20.8989 8.76064 15.1626 8.69269 12.7061C9.12158 12.8183 9.55811 12.8736 9.99804 12.8736C12.1144 12.8736 13.9472 11.6176 15.498 10.2423C17.1057 11.6754 18.8807 12.888 20.969 12.888C21.4192 12.888 21.8667 12.8287 22.3067 12.7117C22.2438 15.1683 21.4395 20.9005 15.4988 22.7063Z" fill="white"/>
</svg>
