<svg width="360" height="62" viewBox="0 0 360 62" fill="none" xmlns="http://www.w3.org/2000/svg">
<g clip-path="url(#clip0_993_2679)">
<rect y="0.407227" width="360" height="61" rx="30.5" fill="url(#paint0_linear_993_2679)"/>
<path d="M94.5769 36.6952C92.8369 36.6952 91.4869 36.3292 90.5269 35.5972C89.5669 34.8532 89.0629 33.7972 89.0149 32.4292H91.5709C91.6549 33.1972 91.9249 33.7492 92.3809 34.0852C92.8489 34.4212 93.5449 34.5892 94.4689 34.5892C95.2009 34.5892 95.8009 34.4572 96.2689 34.1932C96.7369 33.9172 96.9709 33.4972 96.9709 32.9332C96.9709 32.7292 96.9409 32.5492 96.8809 32.3932C96.8329 32.2252 96.7249 32.0812 96.5569 31.9612C96.3889 31.8292 96.2449 31.7272 96.1249 31.6552C96.0049 31.5712 95.7829 31.4872 95.4589 31.4032C95.1349 31.3072 94.8889 31.2412 94.7209 31.2052C94.5529 31.1572 94.2409 31.0792 93.7849 30.9712C93.2329 30.8392 92.7769 30.7252 92.4169 30.6292C92.0689 30.5332 91.6789 30.3832 91.2469 30.1792C90.8269 29.9752 90.4909 29.7532 90.2389 29.5132C89.9989 29.2612 89.7949 28.9372 89.6269 28.5412C89.4589 28.1332 89.3749 27.6712 89.3749 27.1552C89.3749 25.9192 89.8249 24.9712 90.7249 24.3112C91.6369 23.6392 92.8309 23.3032 94.3069 23.3032C95.7709 23.3032 96.9409 23.6512 97.8169 24.3472C98.6929 25.0432 99.1789 26.0332 99.2749 27.3172H96.7729C96.7009 26.6932 96.4369 26.2132 95.9809 25.8772C95.5369 25.5412 94.9729 25.3732 94.2889 25.3732C93.5809 25.3732 93.0169 25.5112 92.5969 25.7872C92.1769 26.0632 91.9669 26.4292 91.9669 26.8852C91.9669 27.3772 92.1709 27.7372 92.5789 27.9652C92.9989 28.1932 93.7309 28.4212 94.7749 28.6492C95.3989 28.7812 95.9089 28.9072 96.3049 29.0272C96.7009 29.1352 97.1269 29.2972 97.5829 29.5132C98.0509 29.7172 98.4109 29.9452 98.6629 30.1972C98.9269 30.4492 99.1429 30.7852 99.3109 31.2052C99.4909 31.6132 99.5809 32.0872 99.5809 32.6272C99.5809 33.8992 99.1189 34.8952 98.1949 35.6152C97.2709 36.3352 96.0649 36.6952 94.5769 36.6952ZM100.932 25.7332V23.5372H111.282V25.7332H107.412V36.4072H104.802V25.7332H100.932ZM111.052 36.4072L115.534 23.5372H118.234L122.77 36.4072H120.052L119.188 33.6712H114.544L113.698 36.4072H111.052ZM116.308 27.9652L115.156 31.6732H118.558L117.406 27.9652L116.884 25.9852H116.848C116.632 26.8492 116.452 27.5092 116.308 27.9652ZM124.857 36.4072V23.5372H130.761C131.997 23.5372 132.993 23.8672 133.749 24.5272C134.517 25.1872 134.901 26.0512 134.901 27.1192C134.901 28.7632 134.115 29.8012 132.543 30.2332V30.2872C133.155 30.4672 133.611 30.7552 133.911 31.1512C134.223 31.5352 134.421 32.1112 134.505 32.8792C134.529 33.1672 134.553 33.5092 134.577 33.9052C134.613 34.2892 134.637 34.5952 134.649 34.8232C134.673 35.0512 134.697 35.2792 134.721 35.5072C134.757 35.7352 134.799 35.9152 134.847 36.0472C134.907 36.1672 134.979 36.2452 135.063 36.2812V36.4072H132.561C132.513 36.3832 132.471 36.3412 132.435 36.2812C132.399 36.2092 132.369 36.1132 132.345 35.9932C132.321 35.8732 132.297 35.7532 132.273 35.6332C132.261 35.5012 132.243 35.3392 132.219 35.1472C132.207 34.9432 132.195 34.7692 132.183 34.6252C132.171 34.4692 132.153 34.2712 132.129 34.0312C132.117 33.7792 132.105 33.5812 132.093 33.4372C131.985 31.9732 131.145 31.2412 129.573 31.2412H127.467V36.4072H124.857ZM127.467 25.6432V29.2252H130.239C130.923 29.2252 131.445 29.0632 131.805 28.7392C132.177 28.4152 132.363 27.9892 132.363 27.4612C132.363 26.9212 132.189 26.4832 131.841 26.1472C131.493 25.8112 130.983 25.6432 130.311 25.6432H127.467ZM136.743 25.7332V23.5372H147.093V25.7332H143.223V36.4072H140.613V25.7332H136.743ZM153.443 36.4072V23.5372H157.115L158.933 29.9992C159.065 30.4792 159.197 31.0132 159.329 31.6012C159.473 32.1772 159.581 32.6332 159.653 32.9692L159.743 33.4732H159.779C160.007 32.2372 160.271 31.0792 160.571 29.9992L162.389 23.5372H166.115V36.4072H163.685V29.0272L163.793 26.3632H163.757C163.565 27.3712 163.379 28.1872 163.199 28.8112L160.985 36.4072H158.483L156.323 28.8112L155.765 26.3632H155.729C155.801 27.4432 155.837 28.3312 155.837 29.0272V36.4072H153.443ZM172.472 36.4072V31.4392L168.188 23.5372H171.032L172.976 27.3532L173.822 29.1892H173.858C174.182 28.4812 174.47 27.8692 174.722 27.3532L176.63 23.5372H179.366L175.082 31.4392V36.4072H172.472ZM188.985 36.6412C187.629 36.6412 186.585 36.3292 185.853 35.7052C185.133 35.0692 184.773 34.1332 184.773 32.8972V31.6192H187.113V32.7352C187.113 33.9352 187.665 34.5352 188.769 34.5352C189.801 34.5352 190.317 33.9472 190.317 32.7712V23.5372H192.927V32.7892C192.927 33.9412 192.591 34.8712 191.919 35.5792C191.247 36.2872 190.269 36.6412 188.985 36.6412ZM205.894 34.8232C204.766 36.0712 203.266 36.6952 201.394 36.6952C199.522 36.6952 198.016 36.0712 196.876 34.8232C195.748 33.5632 195.184 31.9552 195.184 29.9992C195.184 28.0432 195.748 26.4352 196.876 25.1752C198.016 23.9152 199.522 23.2852 201.394 23.2852C203.266 23.2852 204.766 23.9152 205.894 25.1752C207.022 26.4352 207.586 28.0432 207.586 29.9992C207.586 31.9552 207.022 33.5632 205.894 34.8232ZM198.766 33.2752C199.39 34.1272 200.272 34.5532 201.412 34.5532C202.552 34.5532 203.422 34.1332 204.022 33.2932C204.622 32.4412 204.922 31.3432 204.922 29.9992C204.922 28.6552 204.622 27.5572 204.022 26.7052C203.422 25.8532 202.552 25.4272 201.412 25.4272C200.272 25.4272 199.39 25.8532 198.766 26.7052C198.154 27.5572 197.848 28.6552 197.848 29.9992C197.848 31.3312 198.154 32.4232 198.766 33.2752ZM214.984 36.6232C213.328 36.6232 212.068 36.2512 211.204 35.5072C210.34 34.7512 209.908 33.6712 209.908 32.2672V23.5372H212.518V32.2672C212.518 33.7792 213.322 34.5352 214.93 34.5352C215.734 34.5352 216.34 34.3252 216.748 33.9052C217.156 33.4852 217.36 32.9272 217.36 32.2312V23.5372H219.97V32.2672C219.97 33.6592 219.544 34.7332 218.692 35.4892C217.852 36.2452 216.616 36.6232 214.984 36.6232ZM222.85 36.4072V23.5372H228.754C229.99 23.5372 230.986 23.8672 231.742 24.5272C232.51 25.1872 232.894 26.0512 232.894 27.1192C232.894 28.7632 232.108 29.8012 230.536 30.2332V30.2872C231.148 30.4672 231.604 30.7552 231.904 31.1512C232.216 31.5352 232.414 32.1112 232.498 32.8792C232.522 33.1672 232.546 33.5092 232.57 33.9052C232.606 34.2892 232.63 34.5952 232.642 34.8232C232.666 35.0512 232.69 35.2792 232.714 35.5072C232.75 35.7352 232.792 35.9152 232.84 36.0472C232.9 36.1672 232.972 36.2452 233.056 36.2812V36.4072H230.554C230.506 36.3832 230.464 36.3412 230.428 36.2812C230.392 36.2092 230.362 36.1132 230.338 35.9932C230.314 35.8732 230.29 35.7532 230.266 35.6332C230.254 35.5012 230.236 35.3392 230.212 35.1472C230.2 34.9432 230.188 34.7692 230.176 34.6252C230.164 34.4692 230.146 34.2712 230.122 34.0312C230.11 33.7792 230.098 33.5812 230.086 33.4372C229.978 31.9732 229.138 31.2412 227.566 31.2412H225.46V36.4072H222.85ZM225.46 25.6432V29.2252H228.232C228.916 29.2252 229.438 29.0632 229.798 28.7392C230.17 28.4152 230.356 27.9892 230.356 27.4612C230.356 26.9212 230.182 26.4832 229.834 26.1472C229.486 25.8112 228.976 25.6432 228.304 25.6432H225.46ZM235.578 36.4072V23.5372H238.224L242.508 30.7192C242.628 30.9232 242.76 31.1752 242.904 31.4752C243.06 31.7752 243.18 32.0272 243.264 32.2312L243.408 32.5192H243.444C243.396 31.6312 243.372 30.8872 243.372 30.2872V23.5372H245.946V36.4072H243.426L239.034 29.2972C238.914 29.0932 238.776 28.8472 238.62 28.5592C238.464 28.2592 238.344 28.0072 238.26 27.8032L238.116 27.5152H238.08C238.128 28.4152 238.152 29.1652 238.152 29.7652V36.4072H235.578ZM248.921 36.4072V23.5372H258.389V25.7332H251.531V28.6132H257.543V30.7552H251.531V34.2292H258.443V36.4072H248.921ZM264.435 36.4072V31.4392L260.151 23.5372H262.995L264.939 27.3532L265.785 29.1892H265.821C266.145 28.4812 266.433 27.8692 266.685 27.3532L268.593 23.5372H271.329L267.045 31.4392V36.4072H264.435Z" fill="white"/>
</g>
<defs>
<linearGradient id="paint0_linear_993_2679" x1="392.5" y1="30.8163" x2="-15.5" y2="31" gradientUnits="userSpaceOnUse">
<stop stop-color="#0063FF"/>
<stop offset="1" stop-color="#C400E2"/>
</linearGradient>
<clipPath id="clip0_993_2679">
<rect y="0.407227" width="360" height="61" rx="30.5" fill="white"/>
</clipPath>
</defs>
</svg>
