<svg width="31" height="32" viewBox="0 0 31 32" fill="none" xmlns="http://www.w3.org/2000/svg">
<rect y="0.768066" width="30.6391" height="30.464" rx="15.232" fill="#FF282C"/>
<path d="M8.4059 12.8842V21.7051C8.4059 23.47 9.84451 24.1108 10.8116 24.1108H22.8401V22.507H10.8212C10.4507 22.4973 10.0097 22.3514 10.0097 21.7051C10.0097 21.0587 10.4507 20.9128 10.8212 20.9032H22.8401V9.67655C22.8401 8.79206 22.1208 8.07275 21.2363 8.07275H10.8116C9.84451 8.07275 8.4059 8.71347 8.4059 10.4785V12.8842ZM10.8116 9.67655H21.2363V19.2994H10.0097V10.4785C10.0097 9.83212 10.4507 9.68618 10.8116 9.67655Z" fill="white"/>
<path d="M15.6206 17.6956L18.3069 15.0582C18.4726 14.8989 18.6043 14.7078 18.6944 14.4963C18.7844 14.2849 18.8308 14.0575 18.8308 13.8276C18.8308 13.5978 18.7844 13.3704 18.6944 13.159C18.6043 12.9475 18.4726 12.7564 18.3069 12.5971C17.973 12.2676 17.5227 12.0828 17.0536 12.0828C16.5844 12.0828 16.1341 12.2676 15.8002 12.5971L15.6206 12.7719L15.441 12.5963C15.1072 12.2668 14.657 12.082 14.188 12.082C13.719 12.082 13.2688 12.2668 12.935 12.5963C12.7694 12.7556 12.6376 12.9467 12.5476 13.1582C12.4576 13.3696 12.4112 13.597 12.4112 13.8268C12.4112 14.0567 12.4576 14.2841 12.5476 14.4955C12.6376 14.707 12.7694 14.8981 12.935 15.0574L15.6206 17.6956Z" fill="white"/>
</svg>
