<svg width="25" height="25" viewBox="0 0 25 25" fill="none" xmlns="http://www.w3.org/2000/svg">
<path d="M19.1407 11.5796H4.99708C3.88118 11.5796 2.97656 12.4842 2.97656 13.6001V20.6719C2.97656 21.7878 3.88118 22.6924 4.99708 22.6924H19.1407C20.2566 22.6924 21.1612 21.7878 21.1612 20.6719V13.6001C21.1612 12.4842 20.2566 11.5796 19.1407 11.5796Z" stroke="white" stroke-width="1.31333" stroke-linecap="round" stroke-linejoin="round"/>
<path d="M7.01758 11.5796V7.53859C7.01758 6.1989 7.54977 4.91409 8.49706 3.96679C9.44436 3.01949 10.7292 2.4873 12.0689 2.4873C13.4085 2.4873 14.6934 3.01949 15.6407 3.96679C16.588 4.91409 17.1201 6.1989 17.1201 7.53859V11.5796" stroke="white" stroke-width="1.31333" stroke-linecap="round" stroke-linejoin="round"/>
</svg>
