<svg width="24" height="24" viewBox="0 0 24 24" fill="none" xmlns="http://www.w3.org/2000/svg">
<g clip-path="url(#clip0_306_2279)">
<path d="M12 4.56995C8.76415 2.58635 5.07682 1.45864 1.285 1.29295C1.21607 1.29001 1.14726 1.30098 1.08266 1.32521C1.01806 1.34943 0.959003 1.38641 0.909 1.43395C0.859118 1.48102 0.819307 1.53773 0.791978 1.60064C0.764648 1.66356 0.750367 1.73136 0.75 1.79995V18.5419C0.750136 18.6738 0.801163 18.8006 0.892447 18.8958C0.983731 18.991 1.10823 19.0473 1.24 19.0529C2.95858 18.8081 4.70872 18.9084 6.38813 19.3477C8.06753 19.7871 9.64251 20.5569 11.021 21.6119C11.3307 21.7403 11.6682 21.7868 12.001 21.7469" stroke="white" stroke-width="2" stroke-linecap="round" stroke-linejoin="round"/>
<path d="M12 4.56995C15.2359 2.58635 18.9232 1.45864 22.715 1.29295C22.784 1.29001 22.8528 1.30098 22.9174 1.32521C22.982 1.34943 23.041 1.38641 23.091 1.43395C23.1413 1.48137 23.1813 1.53857 23.2086 1.60202C23.236 1.66548 23.2501 1.73385 23.25 1.80295V18.5419C23.2499 18.6738 23.1989 18.8006 23.1076 18.8958C23.0163 18.991 22.8918 19.0473 22.76 19.0529C21.0414 18.8081 19.2913 18.9084 17.6119 19.3477C15.9325 19.7871 14.3575 20.5569 12.979 21.6119C12.6693 21.7403 12.3319 21.7868 11.999 21.7469" stroke="white" stroke-width="2" stroke-linecap="round" stroke-linejoin="round"/>
<path d="M12 4.57007V21.7571" stroke="white" stroke-width="2" stroke-linecap="round" stroke-linejoin="round"/>
<path d="M2.25 18.974V22.2C2.24979 22.2767 2.26686 22.3526 2.29995 22.4218C2.33305 22.491 2.38131 22.5519 2.44116 22.6C2.50101 22.648 2.57091 22.6819 2.64567 22.6992C2.72043 22.7166 2.79813 22.7168 2.873 22.7C5.87501 22.074 8.93342 21.7584 12 21.758C14.8863 21.7565 17.7641 22.0707 20.582 22.695C20.6568 22.7114 20.7344 22.7109 20.809 22.6934C20.8836 22.6759 20.9533 22.642 21.0131 22.594C21.0729 22.5461 21.1211 22.4853 21.1543 22.4163C21.1875 22.3472 21.2048 22.2716 21.205 22.195V18.958" stroke="white" stroke-width="2" stroke-linecap="round" stroke-linejoin="round"/>
</g>
<defs>
<clipPath id="clip0_306_2279">
<rect width="24" height="24" fill="white"/>
</clipPath>
</defs>
</svg>
