<svg width="94" height="24" viewBox="0 0 94 24" fill="none" xmlns="http://www.w3.org/2000/svg">
<rect x="0.25" y="0.25" width="93.5" height="23.5" rx="11.75" stroke="url(#paint0_linear_997_2269)" stroke-width="0.5"/>
<path d="M15.8404 16V8.135H18.0844L19.1954 12.084C19.276 12.3773 19.3567 12.7037 19.4374 13.063C19.5254 13.415 19.5914 13.6937 19.6354 13.899L19.6904 14.207H19.7124C19.8517 13.4517 20.013 12.744 20.1964 12.084L21.3074 8.135H23.5844V16H22.0994V11.49L22.1654 9.862H22.1434C22.026 10.478 21.9124 10.9767 21.8024 11.358L20.4494 16H18.9204L17.6004 11.358L17.2594 9.862H17.2374C17.2814 10.522 17.3034 11.0647 17.3034 11.49V16H15.8404ZM29.4743 15.318C28.9243 15.8827 28.2167 16.165 27.3513 16.165C26.486 16.165 25.7783 15.8827 25.2283 15.318C24.6783 14.746 24.4033 14.0347 24.4033 13.184C24.4033 12.3333 24.6783 11.6257 25.2283 11.061C25.7783 10.489 26.486 10.203 27.3513 10.203C28.2167 10.203 28.9243 10.489 29.4743 11.061C30.0243 11.6257 30.2993 12.3333 30.2993 13.184C30.2993 14.0347 30.0243 14.746 29.4743 15.318ZM27.3513 15.021C27.7987 15.021 28.147 14.856 28.3963 14.526C28.653 14.1887 28.7813 13.7413 28.7813 13.184C28.7813 12.6267 28.653 12.1793 28.3963 11.842C28.147 11.5047 27.7987 11.336 27.3513 11.336C26.8967 11.336 26.5447 11.5047 26.2953 11.842C26.046 12.172 25.9213 12.6193 25.9213 13.184C25.9213 13.7413 26.046 14.1887 26.2953 14.526C26.5447 14.856 26.8967 15.021 27.3513 15.021ZM33.2827 16.165C32.4761 16.165 31.8454 15.989 31.3907 15.637C30.9361 15.2777 30.6867 14.79 30.6427 14.174H32.0287C32.1241 14.7973 32.5347 15.109 33.2607 15.109C33.5907 15.109 33.8437 15.0503 34.0197 14.933C34.2031 14.8157 34.2947 14.658 34.2947 14.46C34.2947 14.3867 34.2801 14.3207 34.2507 14.262C34.2287 14.2033 34.1847 14.152 34.1187 14.108C34.0601 14.0567 34.0051 14.0163 33.9537 13.987C33.9097 13.9577 33.8291 13.9283 33.7117 13.899C33.5944 13.8697 33.5027 13.8477 33.4367 13.833C33.3781 13.8183 33.2717 13.8 33.1177 13.778C32.9711 13.7487 32.8684 13.7267 32.8097 13.712C32.5017 13.6533 32.2487 13.5947 32.0507 13.536C31.8601 13.47 31.6584 13.3783 31.4457 13.261C31.2331 13.1363 31.0717 12.9713 30.9617 12.766C30.8591 12.5533 30.8077 12.3003 30.8077 12.007C30.8077 11.4203 31.0204 10.973 31.4457 10.665C31.8784 10.357 32.4321 10.203 33.1067 10.203C33.8327 10.203 34.4011 10.3717 34.8117 10.709C35.2297 11.039 35.4681 11.4937 35.5267 12.073H34.1737C34.1151 11.523 33.7521 11.248 33.0847 11.248C32.7841 11.248 32.5457 11.303 32.3697 11.413C32.2011 11.523 32.1167 11.677 32.1167 11.875C32.1167 11.941 32.1277 12.0033 32.1497 12.062C32.1791 12.1133 32.2231 12.161 32.2817 12.205C32.3477 12.2417 32.4101 12.2747 32.4687 12.304C32.5274 12.326 32.6117 12.3517 32.7217 12.381C32.8317 12.403 32.9271 12.425 33.0077 12.447C33.0884 12.4617 33.1984 12.4837 33.3377 12.513C33.4771 12.535 33.5871 12.5533 33.6677 12.568C33.9024 12.6193 34.0931 12.667 34.2397 12.711C34.3937 12.7477 34.5697 12.8137 34.7677 12.909C34.9657 12.997 35.1197 13.0997 35.2297 13.217C35.3471 13.327 35.4461 13.481 35.5267 13.679C35.6147 13.8697 35.6587 14.0933 35.6587 14.35C35.6587 14.9073 35.4387 15.351 34.9987 15.681C34.5661 16.0037 33.9941 16.165 33.2827 16.165ZM35.8962 11.347V10.357H36.6772V8.597H38.1402V10.357H39.1082V11.347H38.1402V14.339C38.1402 14.713 38.3272 14.9 38.7012 14.9L39.1412 14.889V15.989C38.9139 16.0037 38.6022 16.011 38.2062 16.011C37.7735 16.011 37.4105 15.9083 37.1172 15.703C36.8239 15.4903 36.6772 15.142 36.6772 14.658V11.347H35.8962ZM41.8472 16V8.135H45.3012C46.1959 8.135 46.8815 8.38067 47.3582 8.872C47.8275 9.356 48.0622 9.95367 48.0622 10.665C48.0622 11.413 47.8275 12.0143 47.3582 12.469C46.8889 12.9237 46.2472 13.151 45.4332 13.151H43.4972V16H41.8472ZM43.4972 9.521V11.853H45.1472C45.5579 11.853 45.8732 11.7503 46.0932 11.545C46.3132 11.3323 46.4232 11.0427 46.4232 10.676C46.4232 10.3093 46.3132 10.027 46.0932 9.829C45.8732 9.62367 45.5652 9.521 45.1692 9.521H43.4972ZM53.365 15.318C52.815 15.8827 52.1073 16.165 51.242 16.165C50.3766 16.165 49.669 15.8827 49.119 15.318C48.569 14.746 48.294 14.0347 48.294 13.184C48.294 12.3333 48.569 11.6257 49.119 11.061C49.669 10.489 50.3766 10.203 51.242 10.203C52.1073 10.203 52.815 10.489 53.365 11.061C53.915 11.6257 54.19 12.3333 54.19 13.184C54.19 14.0347 53.915 14.746 53.365 15.318ZM51.242 15.021C51.6893 15.021 52.0376 14.856 52.287 14.526C52.5436 14.1887 52.672 13.7413 52.672 13.184C52.672 12.6267 52.5436 12.1793 52.287 11.842C52.0376 11.5047 51.6893 11.336 51.242 11.336C50.7873 11.336 50.4353 11.5047 50.186 11.842C49.9366 12.172 49.812 12.6193 49.812 13.184C49.812 13.7413 49.9366 14.1887 50.186 14.526C50.4353 14.856 50.7873 15.021 51.242 15.021ZM54.8854 17.848V10.357H56.3264V11.061H56.3594C56.7774 10.489 57.331 10.203 58.0204 10.203C58.761 10.203 59.355 10.478 59.8024 11.028C60.2497 11.578 60.4734 12.2967 60.4734 13.184C60.4734 14.0933 60.2497 14.8193 59.8024 15.362C59.355 15.8973 58.7647 16.165 58.0314 16.165C57.298 16.165 56.7554 15.8973 56.4034 15.362H56.3814V17.848H54.8854ZM57.7124 14.922C58.0937 14.922 58.3944 14.7717 58.6144 14.471C58.8417 14.1703 58.9554 13.756 58.9554 13.228C58.9554 12.6633 58.849 12.2197 58.6364 11.897C58.4237 11.5743 58.0974 11.413 57.6574 11.413C57.21 11.413 56.88 11.5817 56.6674 11.919C56.4547 12.249 56.3484 12.6853 56.3484 13.228C56.3484 13.7487 56.4657 14.163 56.7004 14.471C56.935 14.7717 57.2724 14.922 57.7124 14.922ZM66.1745 16H64.7335V15.34H64.7005C64.4952 15.6187 64.2679 15.824 64.0185 15.956C63.7765 16.088 63.4649 16.154 63.0835 16.154C62.4675 16.154 61.9872 15.9707 61.6425 15.604C61.2979 15.2373 61.1255 14.7423 61.1255 14.119V10.357H62.6105V13.866C62.6105 14.548 62.9222 14.889 63.5455 14.889C63.8902 14.889 64.1652 14.7717 64.3705 14.537C64.5759 14.3023 64.6785 13.9943 64.6785 13.613V10.357H66.1745V16ZM67.1642 16V8.135H68.6602V16H67.1642ZM73.1981 16C73.1248 15.9047 73.0661 15.6957 73.0221 15.373H73.0001C72.8388 15.615 72.6335 15.802 72.3841 15.934C72.1348 16.066 71.7865 16.132 71.3391 16.132C70.7451 16.132 70.2685 15.9817 69.9091 15.681C69.5498 15.3803 69.3701 14.955 69.3701 14.405C69.3701 13.833 69.5681 13.415 69.9641 13.151C70.3601 12.8797 70.9175 12.6927 71.6361 12.59C72.1641 12.5167 72.5235 12.4433 72.7141 12.37C72.9048 12.2893 73.0001 12.15 73.0001 11.952C73.0001 11.7467 72.9195 11.5853 72.7581 11.468C72.5968 11.3433 72.3621 11.281 72.0541 11.281C71.3721 11.281 71.0091 11.545 70.9651 12.073H69.6341C69.6561 11.5377 69.8725 11.094 70.2831 10.742C70.6938 10.39 71.2878 10.214 72.0651 10.214C73.6491 10.214 74.4411 10.907 74.4411 12.293V15.164C74.4411 15.5893 74.5071 15.8497 74.6391 15.945V16H73.1981ZM71.7021 15.087C72.1128 15.087 72.4355 14.9807 72.6701 14.768C72.9121 14.5553 73.0331 14.3023 73.0331 14.009V13.162C72.8718 13.2573 72.5235 13.3673 71.9881 13.492C71.5628 13.5873 71.2621 13.6973 71.0861 13.822C70.9101 13.9393 70.8221 14.1227 70.8221 14.372C70.8221 14.8487 71.1155 15.087 71.7021 15.087ZM76.8332 10.357V11.259H76.8662C77.0422 10.929 77.2365 10.687 77.4492 10.533C77.6619 10.3717 77.9295 10.291 78.2522 10.291C78.4062 10.291 78.5235 10.3057 78.6042 10.335V11.644H78.5712C78.0652 11.5927 77.6582 11.7027 77.3502 11.974C77.0422 12.2453 76.8882 12.6707 76.8882 13.25V16H75.3922V10.357H76.8332Z" fill="white"/>
<defs>
<linearGradient id="paint0_linear_997_2269" x1="47" y1="0" x2="47" y2="24" gradientUnits="userSpaceOnUse">
<stop offset="0.177329" stop-color="#757C87"/>
<stop offset="0.265994" stop-color="#727983"/>
<stop offset="0.495" stop-color="#6E757E"/>
<stop offset="0.695" stop-color="#5B6169"/>
<stop offset="1" stop-color="#50555C"/>
</linearGradient>
</defs>
</svg>
