<svg width="21" height="21" viewBox="0 0 21 21" fill="none" xmlns="http://www.w3.org/2000/svg">
<path d="M10.2461 0.205078C11.5728 0.205078 12.8865 0.466389 14.1122 0.97409C15.3379 1.48179 16.4516 2.22594 17.3897 3.16405C18.3278 4.10216 19.072 5.21586 19.5797 6.44156C20.0874 7.66726 20.3487 8.98095 20.3487 10.3076C20.3487 11.6343 20.0874 12.948 19.5797 14.1737C19.072 15.3994 18.3278 16.5131 17.3897 17.4512C16.4516 18.3893 15.3379 19.1335 14.1122 19.6412C12.8865 20.1489 11.5728 20.4102 10.2461 20.4102C7.56675 20.4102 4.99713 19.3458 3.10253 17.4512C1.20793 15.5566 0.143555 12.987 0.143555 10.3076C0.143555 7.62828 1.20793 5.05865 3.10253 3.16405C4.99713 1.26945 7.56675 0.205078 10.2461 0.205078ZM10.2461 5.59311C9.47317 5.59402 8.72407 5.8608 8.12455 6.34867C7.52503 6.83654 7.11159 7.5158 6.95363 8.27244C6.79567 9.02907 6.9028 9.81701 7.25705 10.504C7.6113 11.191 8.19109 11.7352 8.89911 12.0453V13.4596L8.79808 13.4798C6.89538 13.8586 5.21715 14.9685 4.12396 16.5712C5.7067 18.1136 7.86191 19.0632 10.2461 19.0632C12.6303 19.0632 14.7855 18.1136 16.3683 16.5712C15.2767 14.97 13.6011 13.8602 11.7009 13.4798L11.5931 13.4596V12.0453C12.1699 11.7944 12.6649 11.3869 13.022 10.8691C13.3791 10.3513 13.5841 9.74385 13.6136 9.11554V8.96063C13.6136 8.06751 13.2588 7.21097 12.6273 6.57944C11.9958 5.9479 11.1392 5.59311 10.2461 5.59311ZM10.2461 1.55209C8.62352 1.55175 7.03275 2.00231 5.65134 2.85349C4.26992 3.70467 3.1522 4.92298 2.42293 6.37245C1.69365 7.82192 1.3815 9.44554 1.52132 11.0621C1.66114 12.6787 2.24742 14.2246 3.21473 15.5273C4.17018 14.2389 5.46074 13.2372 6.94595 12.6312L7.18167 12.5437L7.1682 12.5302C6.67746 12.1081 6.27889 11.5895 5.99732 11.0067C5.71575 10.4238 5.55721 9.78926 5.53159 9.14248V8.96063C5.53227 8.17877 5.7274 7.40936 6.0994 6.72166C6.4714 6.03396 7.00859 5.44958 7.66261 5.02113C8.31662 4.59268 9.06693 4.33361 9.84597 4.26725C10.625 4.20089 11.4083 4.32932 12.1254 4.64098C12.8424 4.95264 13.4707 5.43774 13.9537 6.05261C14.4366 6.66748 14.7591 7.39281 14.892 8.16329C15.0249 8.93377 14.9641 9.72521 14.7151 10.4664C14.4661 11.2075 14.0367 11.8751 13.4655 12.409L13.3106 12.5437L13.3375 12.5571C14.9068 13.1498 16.274 14.1803 17.2775 15.5206C18.2429 14.2178 18.8276 12.6726 18.9664 11.0571C19.1051 9.44157 18.7926 7.81925 18.0636 6.37094C17.3345 4.92262 16.2176 3.7052 14.8373 2.85436C13.457 2.00352 11.8676 1.55268 10.2461 1.55209Z" fill="white"/>
</svg>
