<svg width="31" height="32" viewBox="0 0 31 32" fill="none" xmlns="http://www.w3.org/2000/svg">
<rect y="0.768066" width="30.6391" height="30.464" rx="15.232" fill="#E40053"/>
<path d="M15.4533 23.9186C15.3453 23.9193 15.2381 23.8985 15.1381 23.8577C15.0381 23.8168 14.9471 23.7566 14.8703 23.6805L8.49023 17.2922C7.68993 16.4835 7.24103 15.3918 7.24103 14.254C7.24103 13.1163 7.68993 12.0245 8.49023 11.2159C9.29679 10.4116 10.3893 9.95996 11.5284 9.95996C12.6674 9.95996 13.76 10.4116 14.5665 11.2159L15.4533 12.1027L16.3401 11.2159C17.1467 10.4116 18.2393 9.95996 19.3783 9.95996C20.5173 9.95996 21.6099 10.4116 22.4164 11.2159C23.2167 12.0245 23.6656 13.1163 23.6656 14.254C23.6656 15.3918 23.2167 16.4835 22.4164 17.2922L16.0363 23.6805C15.9596 23.7566 15.8686 23.8168 15.7686 23.8577C15.6685 23.8985 15.5614 23.9193 15.4533 23.9186Z" fill="white"/>
</svg>
