<svg width="21" height="21" viewBox="0 0 21 21" fill="none" xmlns="http://www.w3.org/2000/svg">
<path d="M12.576 7.71063C12.4594 7.38267 12.2443 7.09876 11.9601 6.89777C11.6759 6.69677 11.3366 6.58851 10.9885 6.58781H9.68525C9.31345 6.58586 8.95413 6.72185 8.67678 6.96947C8.39943 7.2171 8.22376 7.55877 8.18372 7.92841C8.14369 8.29806 8.24214 8.66942 8.46004 8.97068C8.67794 9.27194 8.99981 9.4817 9.36341 9.5594L11.3478 9.99237C11.7536 10.0812 12.1122 10.3168 12.3548 10.654C12.5974 10.9912 12.7068 11.4061 12.6621 11.8191C12.6173 12.2321 12.4216 12.6139 12.1124 12.8913C11.8032 13.1687 11.4024 13.322 10.987 13.3219H9.86565C9.13249 13.3219 8.50902 12.8543 8.27811 12.2005M10.4271 6.58781V4.90356M10.4271 15.0061V13.3233M3.40723 19.5321V15.924H7.01528" stroke="white" stroke-width="1.31333" stroke-linecap="round" stroke-linejoin="round"/>
<path d="M19.8455 8.42763C20.2287 10.4701 19.9228 12.582 18.9759 14.4318C18.029 16.2816 16.4946 17.7646 14.6137 18.6481C12.7328 19.5316 10.6117 19.7656 8.58344 19.3132C6.55518 18.8609 4.73452 17.7479 3.40723 16.1489M1.40693 11.8798C1.02379 9.83736 1.32968 7.72548 2.2766 5.87567C3.22351 4.02585 4.75785 2.54281 6.63878 1.65932C8.51971 0.775823 10.6408 0.541889 12.669 0.994232C14.6973 1.44658 16.518 2.55959 17.8452 4.15858" stroke="white" stroke-width="1.31333" stroke-linecap="round" stroke-linejoin="round"/>
<path d="M17.8454 0.775635V4.38369H14.2373" stroke="white" stroke-width="1.31333" stroke-linecap="round" stroke-linejoin="round"/>
</svg>
