<svg width="34" height="34" viewBox="0 0 34 34" fill="none" xmlns="http://www.w3.org/2000/svg">
<g clip-path="url(#clip0_262_4417)">
<path d="M10.8622 9.03437C10.6973 8.76266 10.6239 8.44527 10.6526 8.12876C10.6813 7.81224 10.8106 7.51325 11.0217 7.27562C11.2327 7.03799 11.5143 6.87422 11.8252 6.80834C12.1362 6.74246 12.46 6.77793 12.7493 6.90954L31.8926 15.8105C32.018 15.8688 32.1249 15.9606 32.2014 16.0758C32.2779 16.191 32.3212 16.325 32.3264 16.4632C32.3316 16.6014 32.2985 16.7384 32.2308 16.859C32.1632 16.9796 32.0635 17.0791 31.9428 17.1467L13.4638 27.372C13.1844 27.5242 12.8635 27.5827 12.5484 27.5388C12.2333 27.495 11.9405 27.3512 11.7133 27.1285C11.486 26.9058 11.3362 26.6161 11.2859 26.302C11.2356 25.9878 11.2874 25.6658 11.4338 25.3833L16.1549 17.0273L10.8622 9.03437Z" stroke="#7200AB" stroke-width="1.5" stroke-linecap="round" stroke-linejoin="round"/>
<path d="M32.3279 16.4626L16.1549 17.0273" stroke="#7200AB" stroke-width="1.5" stroke-linecap="round" stroke-linejoin="round"/>
</g>
<defs>
<clipPath id="clip0_262_4417">
<rect width="24" height="24" fill="white" transform="translate(16.4473 0.0397949) rotate(43)"/>
</clipPath>
</defs>
</svg>
