<svg width="40" height="40" viewBox="0 0 40 40" fill="none" xmlns="http://www.w3.org/2000/svg">
<rect x="0.25" y="0.25" width="39.5" height="39.5" rx="19.75" fill="#1C1C1C"/>
<rect x="0.25" y="0.25" width="39.5" height="39.5" rx="19.75" stroke="#2C2C2C" stroke-width="0.5"/>
<path fill-rule="evenodd" clip-rule="evenodd" d="M21.9225 12.2253V12.2253C21.9964 12.9641 22.0333 13.3335 22.188 13.5361C22.3841 13.7932 22.703 13.9253 23.0235 13.8822C23.2761 13.8482 23.5635 13.6132 24.1381 13.143L24.1381 13.143C24.4417 12.8946 24.5935 12.7704 24.7568 12.7183C24.9642 12.652 25.1887 12.6632 25.3885 12.7498C25.5458 12.8179 25.6845 12.9566 25.9619 13.234L25.9619 13.234L26.766 14.0381L26.766 14.0381C27.0434 14.3155 27.182 14.4541 27.2502 14.6115C27.3368 14.8113 27.348 15.0357 27.2817 15.2432C27.2295 15.4065 27.1053 15.5583 26.8569 15.8619L26.8569 15.8619C26.3868 16.4365 26.1517 16.7239 26.1177 16.9765C26.0746 17.297 26.2067 17.6159 26.4638 17.812C26.6665 17.9666 27.0359 18.0036 27.7747 18.0775C28.165 18.1165 28.3602 18.136 28.5126 18.2146C28.7061 18.3144 28.8569 18.4811 28.937 18.6836C29 18.843 29 19.0392 29 19.4314V20.5687C29 20.9609 29 21.1569 28.937 21.3164C28.8569 21.5189 28.7061 21.6856 28.5125 21.7854C28.3601 21.864 28.165 21.8835 27.7748 21.9225C27.0362 21.9964 26.6669 22.0333 26.4643 22.1878C26.2071 22.384 26.0749 22.7031 26.1181 23.0236C26.1521 23.2762 26.3871 23.5634 26.8571 24.1378L26.8571 24.1378C27.1054 24.4413 27.2295 24.593 27.2817 24.7563C27.348 24.9638 27.3368 25.1884 27.2502 25.3882C27.182 25.5455 27.0434 25.6841 26.7661 25.9614L26.7661 25.9614L25.9619 26.7656L25.9619 26.7656C25.6845 27.043 25.5459 27.1817 25.3885 27.2498C25.1887 27.3364 24.9643 27.3476 24.7568 27.2813C24.5935 27.2292 24.4417 27.105 24.1381 26.8566C23.5635 26.3864 23.2762 26.1514 23.0235 26.1174C22.7031 26.0743 22.3841 26.2064 22.188 26.4635C22.0334 26.6661 21.9964 27.0356 21.9226 27.7745L21.9226 27.7745C21.8835 28.165 21.864 28.3602 21.7853 28.5126C21.6855 28.7061 21.519 28.8568 21.3165 28.9369C21.157 29 20.9608 29 20.5685 29H19.4314C19.0392 29 18.843 29 18.6836 28.937C18.4811 28.8569 18.3144 28.7061 18.2146 28.5126C18.136 28.3602 18.1165 28.165 18.0775 27.7747C18.0036 27.0359 17.9666 26.6665 17.812 26.4638C17.6159 26.2067 17.297 26.0746 16.9765 26.1177C16.7239 26.1517 16.4365 26.3868 15.8619 26.857C15.5583 27.1054 15.4065 27.2296 15.2431 27.2818C15.0357 27.348 14.8113 27.3368 14.6114 27.2502C14.4541 27.1821 14.3154 27.0434 14.038 26.766L13.234 25.9619C12.9566 25.6845 12.8179 25.5459 12.7497 25.3885C12.6631 25.1887 12.652 24.9643 12.7182 24.7568C12.7704 24.5935 12.8946 24.4417 13.143 24.1381C13.6132 23.5635 13.8482 23.2761 13.8822 23.0235C13.9253 22.703 13.7932 22.3841 13.5361 22.188C13.3335 22.0333 12.9641 21.9964 12.2253 21.9225H12.2253C11.835 21.8835 11.6398 21.864 11.4875 21.7854C11.2939 21.6856 11.1431 21.5189 11.063 21.3164C11 21.157 11 20.9608 11 20.5686V19.4315C11 19.0392 11 18.843 11.0631 18.6835C11.1431 18.481 11.2939 18.3145 11.4874 18.2147C11.6398 18.136 11.835 18.1165 12.2254 18.0775C12.9644 18.0036 13.3339 17.9666 13.5366 17.8119C13.7936 17.6158 13.9256 17.297 13.8826 16.9766C13.8486 16.7239 13.6135 16.4365 13.1431 15.8616C12.8946 15.5579 12.7704 15.4061 12.7182 15.2426C12.652 15.0353 12.6632 14.8109 12.7497 14.6112C12.8179 14.4538 12.9566 14.3151 13.2341 14.0376L13.2341 14.0376L14.0381 13.2336L14.0381 13.2336C14.3155 12.9562 14.4542 12.8175 14.6115 12.7494C14.8113 12.6628 15.0357 12.6516 15.2432 12.7178C15.4065 12.77 15.5583 12.8942 15.862 13.1427C16.4366 13.6128 16.7238 13.8478 16.9764 13.8819C17.297 13.925 17.616 13.7929 17.8122 13.5357C17.9667 13.333 18.0036 12.9638 18.0775 12.2252V12.2252L18.0775 12.2252C18.1165 11.835 18.136 11.6399 18.2146 11.4875C18.3144 11.2939 18.4811 11.1431 18.6837 11.063C18.8431 11 19.0391 11 19.4313 11H20.5686C20.9608 11 21.157 11 21.3164 11.063C21.5189 11.1431 21.6856 11.2939 21.7854 11.4874C21.864 11.6398 21.8835 11.835 21.9225 12.2253ZM20 23.6C21.9882 23.6 23.6 21.9882 23.6 20C23.6 18.0118 21.9882 16.4 20 16.4C18.0118 16.4 16.4 18.0118 16.4 20C16.4 21.9882 18.0118 23.6 20 23.6Z" fill="white"/>
</svg>
