<svg width="32" height="30" viewBox="0 0 32 30" fill="none" xmlns="http://www.w3.org/2000/svg">
<path d="M30.7171 3.88567L16.943 0.883227C16.5303 0.78005 16.1073 0.759415 15.6739 0.821321C15.0755 0.945133 14.5699 1.23403 14.1572 1.688L2.92129 13.7597C2.21969 14.5232 1.67802 15.395 1.29626 16.3752C0.91451 17.3554 0.723633 18.3613 0.723633 19.3931V19.8884C0.723633 20.9614 1.03316 21.9261 1.65222 22.7825C2.27128 23.6388 3.08638 24.2321 4.09751 24.5623L17.3144 29.0814C17.8097 29.2465 18.3101 29.2568 18.8157 29.1123C19.3212 28.9679 19.7391 28.6893 20.0692 28.2766L30.9647 14.9049C31.171 14.6367 31.2433 14.3271 31.1814 13.9763C31.0782 13.5843 30.9131 13.1716 30.6861 12.7382C30.4798 12.4081 30.3663 12.1346 30.3456 11.918C30.325 11.7013 30.325 11.4795 30.3456 11.2525C30.3663 11.1287 30.4075 10.9223 30.4694 10.6334L30.5623 10.3239C30.6242 9.99372 30.5881 9.70483 30.454 9.4572C30.3198 9.20958 30.0774 9.05481 29.7266 8.99291C29.4583 8.931 29.221 8.98259 29.0147 9.14767C28.8496 9.27148 28.6535 9.49847 28.4265 9.82864C28.2615 10.1175 28.1531 10.5199 28.1015 11.0358C28.05 11.5517 28.0861 12.0366 28.2099 12.4906C28.2924 12.7176 28.3956 13.0271 28.5194 13.4192C28.602 13.6462 28.5607 13.8525 28.3956 14.0382L18.7073 25.9242C18.5422 26.1099 18.3307 26.244 18.0728 26.3266C17.8148 26.4091 17.5621 26.4091 17.3144 26.3266L5.088 22.4884C4.53085 22.3027 4.07687 21.9777 3.72607 21.5134C3.37527 21.0491 3.19987 20.5177 3.19987 19.9193V18.9288C3.1586 18.5161 3.22051 18.1756 3.38559 17.9074C3.55067 17.6391 3.77766 17.4585 4.06655 17.3657C4.35545 17.2728 4.64434 17.2677 4.93324 17.3502L17.0668 21.0027C17.2113 21.0439 17.3557 21.0646 17.5001 21.0646H17.5311C17.9644 21.0646 18.3359 20.8892 18.6454 20.5384L31.2742 5.74284C31.4599 5.53649 31.5528 5.29919 31.5528 5.03093V4.96902C31.5528 4.7214 31.4754 4.49441 31.3207 4.28805C31.1659 4.0817 30.9647 3.94757 30.7171 3.88567ZM13.7858 14.4406C13.4556 14.8121 13.0223 15.0855 12.4858 15.2609C11.9492 15.4363 11.4643 15.4776 11.031 15.3847C10.5976 15.2918 10.3449 15.0855 10.2726 14.7656C10.2004 14.4458 10.3294 14.1053 10.6595 13.7442C10.9897 13.3831 11.423 13.1148 11.9596 12.9394C12.4961 12.764 12.981 12.7279 13.4144 12.8311C13.8477 12.9343 14.1005 13.1406 14.1727 13.4501C14.2449 13.7597 14.116 14.0898 13.7858 14.4406ZM23.7836 7.72384C23.2884 8.26035 22.7106 8.68338 22.0502 8.99291C21.3074 9.34371 20.2137 9.66356 18.7692 9.95245C17.8613 10.1382 17.2009 10.3342 16.7882 10.5406C16.4993 10.685 16.0557 11.0461 15.4573 11.6239C15.2922 11.789 15.0961 11.8406 14.8691 11.7787L14.4977 11.6858C14.4358 11.6652 14.3945 11.6239 14.3739 11.562C14.3533 11.5001 14.3636 11.4485 14.4049 11.4072C14.8588 10.912 15.2406 10.5509 15.5501 10.3239C15.9009 10.035 16.489 9.67903 17.3144 9.25601C18.1398 8.83298 18.7486 8.47702 19.1407 8.18813L19.5121 7.94051C20.0486 7.58971 20.42 7.30081 20.6264 7.07382C20.9566 6.72302 21.1887 6.42381 21.3228 6.17619C21.457 5.92856 21.4982 5.70673 21.4467 5.5107C21.3951 5.31466 21.2609 5.13926 21.0443 4.9845C20.8276 4.82973 20.5954 4.73171 20.3478 4.69044C19.9764 4.6079 19.6153 4.61822 19.2645 4.7214C19.12 4.74203 18.9704 4.79362 18.8157 4.87616C18.6609 4.9587 18.5474 5.04124 18.4752 5.12379C18.4029 5.20633 18.3462 5.35077 18.3049 5.55713L18.274 5.71189C18.2121 5.93888 18.1708 6.09365 18.1502 6.17619C18.0883 6.34127 18.0057 6.4754 17.9025 6.57858C17.593 6.90874 17.2938 7.11509 17.0049 7.19763C16.6335 7.32145 16.2775 7.34724 15.937 7.27502C15.5965 7.20279 15.3953 7.03255 15.3334 6.76429C15.3128 6.59921 15.3128 6.42381 15.3334 6.23809C15.3953 6.0111 15.4985 5.81507 15.643 5.64999C15.9112 5.36109 16.2723 5.11347 16.7263 4.90711C17.0978 4.74203 17.593 4.56663 18.2121 4.38091C18.7899 4.21583 19.4038 4.12297 20.0538 4.10234C20.7038 4.0817 21.3177 4.13329 21.8955 4.2571C23.0304 4.52536 23.763 4.98966 24.0931 5.64999C24.2376 5.98015 24.2995 6.32063 24.2789 6.67143C24.2376 7.06351 24.0725 7.41431 23.7836 7.72384Z" fill="white"/>
</svg>
