<svg width="22" height="23" viewBox="0 0 22 23" fill="none" xmlns="http://www.w3.org/2000/svg">
<path d="M1.8877 4.52343V18.0844C1.88769 18.1952 1.91793 18.3038 1.97516 18.3985C2.03239 18.4933 2.11443 18.5706 2.21241 18.6221C2.31038 18.6737 2.42058 18.6975 2.5311 18.6909C2.64161 18.6844 2.74823 18.6478 2.83945 18.585L12.7012 11.8045C12.7826 11.7488 12.8491 11.6741 12.8951 11.5869C12.9411 11.4997 12.9651 11.4025 12.9651 11.3039C12.9651 11.2053 12.9411 11.1082 12.8951 11.021C12.8491 10.9338 12.7826 10.8591 12.7012 10.8034L2.83945 4.02285C2.74823 3.96011 2.64161 3.9235 2.5311 3.91696C2.42058 3.91041 2.31038 3.93419 2.21241 3.98573C2.11443 4.03726 2.03239 4.11459 1.97516 4.20935C1.91793 4.30412 1.88769 4.41272 1.8877 4.52343Z" stroke="white" stroke-width="1.62" stroke-linecap="round" stroke-linejoin="round"/>
<path d="M17.6828 3.40649H18.8978C18.8978 3.40649 20.1128 3.40649 20.1128 4.62149V17.9865C20.1128 17.9865 20.1128 19.2015 18.8978 19.2015H17.6828C17.6828 19.2015 16.4678 19.2015 16.4678 17.9865V4.62149C16.4678 4.62149 16.4678 3.40649 17.6828 3.40649Z" stroke="white" stroke-width="1.62" stroke-linecap="round" stroke-linejoin="round"/>
</svg>
